<svg width="58" height="55" viewBox="0 0 58 55" fill="none" xmlns="http://www.w3.org/2000/svg">
<g filter="url(#filter0_dd_19_687)">
<path d="M22 45.8334H36C47.6667 45.8334 52.3334 41.6668 52.3334 31.2501V18.7501C52.3334 8.33342 47.6667 4.16675 36 4.16675L22 4.16675C10.3334 4.16675 5.66669 8.33342 5.66669 18.7501L5.66669 31.2501C5.66669 41.6668 10.3334 45.8334 22 45.8334Z" stroke="#F3F6F9" stroke-width="1.5" stroke-linecap="round" stroke-linejoin="round"/>
<path d="M22 32.0416H33.48C37.4467 32.0416 40.6667 29.1666 40.6667 25.6249C40.6667 22.0833 37.4467 19.2083 33.48 19.2083L17.6833 19.2083" stroke="#F3F6F9" stroke-width="1.5" stroke-miterlimit="10" stroke-linecap="round" stroke-linejoin="round"/>
<path d="M20.9966 22.4375L17.3333 19.1458L20.9966 15.875" stroke="#F3F6F9" stroke-width="1.5" stroke-linecap="round" stroke-linejoin="round"/>
</g>
<defs>
<filter id="filter0_dd_19_687" x="-3" y="0" width="64" height="58" filterUnits="userSpaceOnUse" color-interpolation-filters="sRGB">
<feFlood flood-opacity="0" result="BackgroundImageFix"/>
<feColorMatrix in="SourceAlpha" type="matrix" values="0 0 0 0 0 0 0 0 0 0 0 0 0 0 0 0 0 0 127 0" result="hardAlpha"/>
<feOffset dy="4"/>
<feGaussianBlur stdDeviation="2"/>
<feComposite in2="hardAlpha" operator="out"/>
<feColorMatrix type="matrix" values="0 0 0 0 0 0 0 0 0 0 0 0 0 0 0 0 0 0 0.25 0"/>
<feBlend mode="normal" in2="BackgroundImageFix" result="effect1_dropShadow_19_687"/>
<feColorMatrix in="SourceAlpha" type="matrix" values="0 0 0 0 0 0 0 0 0 0 0 0 0 0 0 0 0 0 127 0" result="hardAlpha"/>
<feOffset dy="4"/>
<feGaussianBlur stdDeviation="2"/>
<feComposite in2="hardAlpha" operator="out"/>
<feColorMatrix type="matrix" values="0 0 0 0 0 0 0 0 0 0 0 0 0 0 0 0 0 0 0.25 0"/>
<feBlend mode="normal" in2="effect1_dropShadow_19_687" result="effect2_dropShadow_19_687"/>
<feBlend mode="normal" in="SourceGraphic" in2="effect2_dropShadow_19_687" result="shape"/>
</filter>
</defs>
</svg>
