<svg width="34" height="35" viewBox="0 0 34 35" fill="none" xmlns="http://www.w3.org/2000/svg">
<path d="M27.4537 7C26.3909 7 25.4153 6.3875 24.9275 5.4425L23.6731 2.905C22.8717 1.3125 20.781 0 19.004 0L15.0143 0C13.2198 0 11.1292 1.3125 10.3278 2.905L9.07338 5.4425C8.58556 6.3875 7.60993 7 6.54718 7C2.76659 7 -0.230006 10.2025 0.0139029 13.9825L0.919851 28.4375C1.12892 32.0425 3.06277 35 7.87126 35L26.1296 35C30.9381 35 32.8545 32.0425 33.081 28.4375L33.987 13.9825C34.0434 13.0862 33.9163 12.1878 33.6134 11.3428C33.3105 10.4978 32.8383 9.72423 32.226 9.06981C31.6137 8.41539 30.8742 7.89407 30.0534 7.53806C29.2326 7.18205 28.3478 6.99893 27.4537 7ZM14.3871 9.1875L19.6137 9.1875C20.328 9.1875 20.9204 9.7825 20.9204 10.5C20.9204 11.2175 20.328 11.8125 19.6137 11.8125L14.3871 11.8125C13.6728 11.8125 13.0805 11.2175 13.0805 10.5C13.0805 9.7825 13.6728 9.1875 14.3871 9.1875ZM17.0004 28.21C13.7599 28.21 11.1118 25.5675 11.1118 22.295C11.1118 19.0225 13.7425 16.38 17.0004 16.38C20.2584 16.38 22.8891 19.0225 22.8891 22.295C22.8891 25.5675 20.2409 28.21 17.0004 28.21Z" fill="white"/>
</svg>
