<svg width="32" height="30" viewBox="0 0 32 30" fill="none" xmlns="http://www.w3.org/2000/svg">
<path d="M25.7084 17.875C22.4854 17.875 19.875 20.4854 19.875 23.7083C19.875 24.8021 20.1813 25.8375 20.7209 26.7125C21.235 27.5765 21.9652 28.2918 22.8398 28.7879C23.7143 29.284 24.7029 29.5438 25.7084 29.5417C27.8375 29.5417 29.6896 28.4042 30.6959 26.7125C31.2354 25.8375 31.5417 24.8021 31.5417 23.7083C31.5417 20.4854 28.9313 17.875 25.7084 17.875ZM28.7271 23.0812L25.6209 25.9542C25.4167 26.1437 25.1396 26.2458 24.8771 26.2458C24.6 26.2458 24.3229 26.1437 24.1042 25.925L22.6604 24.4812C22.457 24.2754 22.343 23.9977 22.343 23.7083C22.343 23.419 22.457 23.1412 22.6604 22.9354C23.0834 22.5125 23.7834 22.5125 24.2063 22.9354L24.9063 23.6354L27.2396 21.4771C27.6771 21.0687 28.3771 21.0979 28.7854 21.5354C29.1938 21.9729 29.1646 22.6583 28.7271 23.0812ZM30.0834 7.0075V7.66375C30.0834 8.46583 29.4271 9.12208 28.625 9.12208H2.37502C1.57294 9.12208 0.916687 8.46583 0.916687 7.66375V6.99291C0.916687 3.65333 3.6146 0.955414 6.95419 0.955414H24.0313C27.3709 0.955414 30.0834 3.66791 30.0834 7.0075Z" fill="#1E243A"/>
<path d="M0.916687 12.7679V20.0012C0.916687 23.3408 3.6146 26.0387 6.95419 26.0387H16.0834C16.9292 26.0387 17.6584 25.3242 17.5854 24.4783C17.3813 22.2471 18.0959 19.8262 20.0792 17.9012C20.8959 17.0992 21.9021 16.4867 22.9959 16.1367C24.8188 15.5533 26.5834 15.6262 28.1438 16.1512C28.3631 16.2279 28.5976 16.2511 28.8278 16.2188C29.0579 16.1865 29.277 16.0996 29.4667 15.9655C29.6565 15.8314 29.8115 15.6539 29.9187 15.4477C30.026 15.2416 30.0824 15.0128 30.0834 14.7804V12.7533C30.0834 11.9512 29.4271 11.295 28.625 11.295H2.37502C1.57294 11.3096 0.916687 11.9658 0.916687 12.7679ZM9.66669 21.1533H6.75002C6.1521 21.1533 5.65627 20.6575 5.65627 20.0596C5.65627 19.4617 6.1521 18.9658 6.75002 18.9658H9.66669C10.2646 18.9658 10.7604 19.4617 10.7604 20.0596C10.7604 20.6575 10.2646 21.1533 9.66669 21.1533Z" fill="#1E243A"/>
</svg>
