<svg width="135" height="34" viewBox="0 0 135 34" fill="none" xmlns="http://www.w3.org/2000/svg">
<path fill-rule="evenodd" clip-rule="evenodd" d="M11.8213 0H127C131.418 0 135 3.58172 135 8V26.4L72.0421 33.7333L11.8213 26.4L11.8213 3.66667H3.60724L3.60938 0H11.8213Z" fill="#83271A"/>
<path fill-rule="evenodd" clip-rule="evenodd" d="M6.33517 0H6.33243C4.82104 0 3.53098 0.286313 2.46227 0.858939C1.39355 1.43156 0.859192 2.12278 0.859192 2.9326V4.4H11.8084V2.9326C11.8084 2.12278 11.2741 1.43156 10.2053 0.858939C9.13662 0.286313 7.84657 0 6.33517 0Z" fill="#B63725"/>
<path d="M38.7796 9.1087V18.8667H37.5056V9.1087H38.7796ZM44.6889 11.0547C45.6222 11.0547 46.3782 11.3394 46.9569 11.9087C47.5355 12.4687 47.8249 13.2807 47.8249 14.3447V18.8667H46.5649V14.5267C46.5649 13.7614 46.3735 13.178 45.9909 12.7767C45.6082 12.366 45.0855 12.1607 44.4229 12.1607C43.7509 12.1607 43.2142 12.3707 42.8129 12.7907C42.4209 13.2107 42.2249 13.822 42.2249 14.6247V18.8667H40.9509V11.1947H42.2249V12.2867C42.4769 11.8947 42.8175 11.5914 43.2469 11.3767C43.6855 11.162 44.1662 11.0547 44.6889 11.0547ZM52.622 18.9927C52.034 18.9927 51.5066 18.8947 51.04 18.6987C50.5733 18.4934 50.2046 18.2134 49.934 17.8587C49.6633 17.4947 49.514 17.0794 49.486 16.6127H50.802C50.8393 16.9954 51.0166 17.308 51.334 17.5507C51.6606 17.7934 52.0853 17.9147 52.608 17.9147C53.0933 17.9147 53.476 17.8074 53.756 17.5927C54.036 17.378 54.176 17.1074 54.176 16.7807C54.176 16.4447 54.0266 16.1974 53.728 16.0387C53.4293 15.8707 52.9673 15.7074 52.342 15.5487C51.7726 15.3994 51.306 15.25 50.942 15.1007C50.5873 14.942 50.2793 14.7134 50.018 14.4147C49.766 14.1067 49.64 13.7054 49.64 13.2107C49.64 12.8187 49.7566 12.4594 49.99 12.1327C50.2233 11.806 50.5546 11.5494 50.984 11.3627C51.4133 11.1667 51.9033 11.0687 52.454 11.0687C53.3033 11.0687 53.9893 11.2834 54.512 11.7127C55.0346 12.142 55.3146 12.73 55.352 13.4767H54.078C54.05 13.0754 53.8866 12.7534 53.588 12.5107C53.2986 12.268 52.9066 12.1467 52.412 12.1467C51.9546 12.1467 51.5906 12.2447 51.32 12.4407C51.0493 12.6367 50.914 12.8934 50.914 13.2107C50.914 13.4627 50.9933 13.6727 51.152 13.8407C51.32 13.9994 51.5253 14.13 51.768 14.2327C52.02 14.326 52.3653 14.4334 52.804 14.5547C53.3546 14.704 53.8026 14.8534 54.148 15.0027C54.4933 15.1427 54.7873 15.3574 55.03 15.6467C55.282 15.936 55.4126 16.314 55.422 16.7807C55.422 17.2007 55.3053 17.5787 55.072 17.9147C54.8386 18.2507 54.5073 18.5167 54.078 18.7127C53.658 18.8994 53.1726 18.9927 52.622 18.9927ZM58.7744 12.2447V16.7667C58.7744 17.14 58.8537 17.406 59.0124 17.5647C59.1711 17.714 59.4464 17.7887 59.8384 17.7887H60.7764V18.8667H59.6284C58.9191 18.8667 58.3871 18.7034 58.0324 18.3767C57.6777 18.05 57.5004 17.5134 57.5004 16.7667V12.2447H56.5064V11.1947H57.5004V9.2627H58.7744V11.1947H60.7764V12.2447H58.7744ZM63.594 12.4407C63.818 12.002 64.1353 11.6614 64.546 11.4187C64.966 11.176 65.4747 11.0547 66.072 11.0547V12.3707H65.736C64.308 12.3707 63.594 13.1454 63.594 14.6947V18.8667H62.32V11.1947H63.594V12.4407ZM74.3467 11.1947V18.8667H73.0727V17.7327C72.83 18.1247 72.4893 18.4327 72.0507 18.6567C71.6213 18.8714 71.1453 18.9787 70.6227 18.9787C70.0253 18.9787 69.4887 18.8574 69.0127 18.6147C68.5367 18.3627 68.1587 17.9894 67.8787 17.4947C67.608 17 67.4727 16.398 67.4727 15.6887V11.1947H68.7327V15.5207C68.7327 16.2767 68.924 16.86 69.3067 17.2707C69.6893 17.672 70.212 17.8727 70.8747 17.8727C71.556 17.8727 72.0927 17.6627 72.4847 17.2427C72.8767 16.8227 73.0727 16.2114 73.0727 15.4087V11.1947H74.3467ZM76.0218 15.0167C76.0218 14.2234 76.1804 13.5327 76.4978 12.9447C76.8151 12.3474 77.2538 11.8854 77.8138 11.5587C78.3831 11.232 79.0318 11.0687 79.7598 11.0687C80.7024 11.0687 81.4771 11.2974 82.0838 11.7547C82.6998 12.212 83.1058 12.8467 83.3018 13.6587H81.9298C81.7991 13.192 81.5424 12.8234 81.1598 12.5527C80.7864 12.282 80.3198 12.1467 79.7598 12.1467C79.0318 12.1467 78.4438 12.3987 77.9958 12.9027C77.5478 13.3974 77.3238 14.102 77.3238 15.0167C77.3238 15.9407 77.5478 16.6547 77.9958 17.1587C78.4438 17.6627 79.0318 17.9147 79.7598 17.9147C80.3198 17.9147 80.7864 17.784 81.1598 17.5227C81.5331 17.2614 81.7898 16.888 81.9298 16.4027H83.3018C83.0964 17.1867 82.6858 17.8167 82.0698 18.2927C81.4538 18.7594 80.6838 18.9927 79.7598 18.9927C79.0318 18.9927 78.3831 18.8294 77.8138 18.5027C77.2538 18.176 76.8151 17.714 76.4978 17.1167C76.1804 16.5194 76.0218 15.8194 76.0218 15.0167ZM86.5557 12.2447V16.7667C86.5557 17.14 86.635 17.406 86.7937 17.5647C86.9523 17.714 87.2277 17.7887 87.6197 17.7887H88.5577V18.8667H87.4097C86.7003 18.8667 86.1683 18.7034 85.8137 18.3767C85.459 18.05 85.2817 17.5134 85.2817 16.7667V12.2447H84.2877V11.1947H85.2817V9.2627H86.5557V11.1947H88.5577V12.2447H86.5557ZM90.7593 9.9487C90.5166 9.9487 90.3113 9.8647 90.1433 9.6967C89.9753 9.5287 89.8913 9.32337 89.8913 9.0807C89.8913 8.83803 89.9753 8.6327 90.1433 8.4647C90.3113 8.2967 90.5166 8.2127 90.7593 8.2127C90.9926 8.2127 91.1886 8.2967 91.3473 8.4647C91.5153 8.6327 91.5993 8.83803 91.5993 9.0807C91.5993 9.32337 91.5153 9.5287 91.3473 9.6967C91.1886 9.8647 90.9926 9.9487 90.7593 9.9487ZM91.3753 11.1947V18.8667H90.1013V11.1947H91.3753ZM96.8926 18.9927C96.1739 18.9927 95.5206 18.8294 94.9326 18.5027C94.3539 18.176 93.8966 17.714 93.5606 17.1167C93.2339 16.51 93.0706 15.81 93.0706 15.0167C93.0706 14.2327 93.2386 13.542 93.5746 12.9447C93.9199 12.338 94.3866 11.876 94.9746 11.5587C95.5626 11.232 96.2206 11.0687 96.9486 11.0687C97.6766 11.0687 98.3346 11.232 98.9226 11.5587C99.5106 11.876 99.9726 12.3334 100.309 12.9307C100.654 13.528 100.827 14.2234 100.827 15.0167C100.827 15.81 100.649 16.51 100.295 17.1167C99.9492 17.714 99.4779 18.176 98.8806 18.5027C98.2832 18.8294 97.6206 18.9927 96.8926 18.9927ZM96.8926 17.8727C97.3499 17.8727 97.7792 17.7654 98.1806 17.5507C98.5819 17.336 98.9039 17.014 99.1466 16.5847C99.3986 16.1554 99.5246 15.6327 99.5246 15.0167C99.5246 14.4007 99.4032 13.878 99.1606 13.4487C98.9179 13.0194 98.6006 12.702 98.2086 12.4967C97.8166 12.282 97.3919 12.1747 96.9346 12.1747C96.4679 12.1747 96.0386 12.282 95.6466 12.4967C95.2639 12.702 94.9559 13.0194 94.7226 13.4487C94.4892 13.878 94.3726 14.4007 94.3726 15.0167C94.3726 15.642 94.4846 16.1694 94.7086 16.5987C94.9419 17.028 95.2499 17.35 95.6326 17.5647C96.0152 17.77 96.4352 17.8727 96.8926 17.8727ZM106.24 11.0547C107.173 11.0547 107.929 11.3394 108.508 11.9087C109.086 12.4687 109.376 13.2807 109.376 14.3447V18.8667H108.116V14.5267C108.116 13.7614 107.924 13.178 107.542 12.7767C107.159 12.366 106.636 12.1607 105.974 12.1607C105.302 12.1607 104.765 12.3707 104.364 12.7907C103.972 13.2107 103.776 13.822 103.776 14.6247V18.8667H102.502V11.1947H103.776V12.2867C104.028 11.8947 104.368 11.5914 104.798 11.3767C105.236 11.162 105.717 11.0547 106.24 11.0547Z" fill="white"/>
</svg>
