<svg width="35" height="35" viewBox="0 0 35 35" fill="none" xmlns="http://www.w3.org/2000/svg">
<path d="M24.8449 0L10.1726 0C3.79939 0 0 3.7975 0 10.1675L0 24.815C0 31.2025 3.79939 35 10.1726 35L24.8274 35C31.2005 35 34.9999 31.2025 34.9999 24.8325L34.9999 10.1675C35.0174 3.7975 31.2181 0 24.8449 0ZM22.3937 25.55C22.131 25.8825 21.7458 26.0575 21.3606 26.0575C21.0805 26.0575 20.8004 25.97 20.5552 25.7775C18.6993 24.3425 16.3006 24.3425 14.4447 25.7775C13.8669 26.215 13.044 26.11 12.6063 25.55C12.1686 24.9725 12.2736 24.15 12.8339 23.7125C14.1608 22.6667 15.8014 22.098 17.4912 22.098C19.181 22.098 20.8216 22.6667 22.1485 23.7125C22.7438 24.15 22.8489 24.9725 22.3937 25.55ZM26.2631 20.1425C26.0005 20.475 25.6153 20.65 25.2301 20.65C24.9499 20.65 24.6698 20.5625 24.4247 20.37C20.2226 17.1325 14.8124 17.1325 10.6103 20.37C10.4746 20.4769 10.3192 20.556 10.153 20.6028C9.98675 20.6497 9.8129 20.6633 9.64138 20.643C9.46985 20.6227 9.30401 20.5688 9.15331 20.4844C9.00262 20.4001 8.87003 20.2868 8.76312 20.1513C8.54719 19.8774 8.44894 19.5291 8.48998 19.1828C8.53103 18.8366 8.708 18.5208 8.98198 18.305C14.147 14.315 20.8354 14.315 26.0005 18.305C26.5958 18.7425 26.7008 19.565 26.2631 20.1425ZM29.047 14.735C28.7843 15.0675 28.3992 15.2425 28.014 15.2425C27.7338 15.2425 27.4537 15.155 27.2086 14.9625C21.3081 10.4125 13.6918 10.4125 7.80889 14.9625C7.2311 15.4 6.40819 15.295 5.97047 14.735C5.53276 14.1575 5.63781 13.335 6.19809 12.8975C13.0615 7.595 21.9384 7.595 28.8194 12.8975C29.3971 13.335 29.5022 14.1575 29.047 14.735Z" fill="#1E243A"/>
</svg>
