<svg width="107" height="34" viewBox="0 0 107 34" fill="none" xmlns="http://www.w3.org/2000/svg">
<path fill-rule="evenodd" clip-rule="evenodd" d="M8.9434 0H98.5788C102.997 0 106.579 3.58172 106.579 8V26.4L56.6763 33.7333L8.9434 26.4L8.9434 3.66667H2.43268L2.43437 0H8.9434Z" fill="#83271A"/>
<path fill-rule="evenodd" clip-rule="evenodd" d="M4.59495 0H4.59278C3.3948 0 2.37226 0.286313 1.52516 0.858939C0.678066 1.43156 0.254517 2.12278 0.254517 2.9326V4.4H8.93322V2.9326C8.93322 2.12278 8.50967 1.43156 7.66257 0.858939C6.81547 0.286313 5.79293 0 4.59495 0Z" fill="#B63725"/>
<path d="M44.2405 18.8666H42.9665L37.8425 11.0966V18.8666H36.5685V9.09458H37.8425L42.9665 16.8506V9.09458H44.2405V18.8666ZM49.7582 18.9926C49.0396 18.9926 48.3862 18.8292 47.7982 18.5026C47.2196 18.1759 46.7622 17.7139 46.4262 17.1166C46.0996 16.5099 45.9362 15.8099 45.9362 15.0166C45.9362 14.2326 46.1042 13.5419 46.4402 12.9446C46.7856 12.3379 47.2522 11.8759 47.8402 11.5586C48.4282 11.2319 49.0862 11.0686 49.8142 11.0686C50.5422 11.0686 51.2002 11.2319 51.7882 11.5586C52.3762 11.8759 52.8382 12.3332 53.1742 12.9306C53.5196 13.5279 53.6922 14.2232 53.6922 15.0166C53.6922 15.8099 53.5149 16.5099 53.1602 17.1166C52.8149 17.7139 52.3436 18.1759 51.7462 18.5026C51.1489 18.8292 50.4862 18.9926 49.7582 18.9926ZM49.7582 17.8726C50.2156 17.8726 50.6449 17.7652 51.0462 17.5506C51.4476 17.3359 51.7696 17.0139 52.0122 16.5846C52.2642 16.1552 52.3902 15.6326 52.3902 15.0166C52.3902 14.4006 52.2689 13.8779 52.0262 13.4486C51.7836 13.0192 51.4662 12.7019 51.0742 12.4966C50.6822 12.2819 50.2576 12.1746 49.8002 12.1746C49.3336 12.1746 48.9042 12.2819 48.5122 12.4966C48.1296 12.7019 47.8216 13.0192 47.5882 13.4486C47.3549 13.8779 47.2382 14.4006 47.2382 15.0166C47.2382 15.6419 47.3502 16.1692 47.5742 16.5986C47.8076 17.0279 48.1156 17.3499 48.4982 17.5646C48.8809 17.7699 49.3009 17.8726 49.7582 17.8726ZM56.9213 12.2446V16.7666C56.9213 17.1399 57.0007 17.4059 57.1593 17.5646C57.318 17.7139 57.5933 17.7886 57.9853 17.7886H58.9233V18.8666H57.7753C57.066 18.8666 56.534 18.7032 56.1793 18.3766C55.8247 18.0499 55.6473 17.5132 55.6473 16.7666V12.2446H54.6533V11.1946H55.6473V9.26258H56.9213V11.1946H58.9233V12.2446H56.9213ZM61.1249 9.94858C60.8823 9.94858 60.6769 9.86458 60.5089 9.69658C60.3409 9.52858 60.2569 9.32324 60.2569 9.08058C60.2569 8.83791 60.3409 8.63258 60.5089 8.46458C60.6769 8.29658 60.8823 8.21258 61.1249 8.21258C61.3583 8.21258 61.5543 8.29658 61.7129 8.46458C61.8809 8.63258 61.9649 8.83791 61.9649 9.08058C61.9649 9.32324 61.8809 9.52858 61.7129 9.69658C61.5543 9.86458 61.3583 9.94858 61.1249 9.94858ZM61.7409 11.1946V18.8666H60.4669V11.1946H61.7409ZM63.4362 15.0166C63.4362 14.2232 63.5949 13.5326 63.9122 12.9446C64.2296 12.3472 64.6682 11.8852 65.2282 11.5586C65.7976 11.2319 66.4462 11.0686 67.1742 11.0686C68.1169 11.0686 68.8916 11.2972 69.4982 11.7546C70.1142 12.2119 70.5202 12.8466 70.7162 13.6586H69.3442C69.2136 13.1919 68.9569 12.8232 68.5742 12.5526C68.2009 12.2819 67.7342 12.1466 67.1742 12.1466C66.4462 12.1466 65.8582 12.3986 65.4102 12.9026C64.9622 13.3972 64.7382 14.1019 64.7382 15.0166C64.7382 15.9406 64.9622 16.6546 65.4102 17.1586C65.8582 17.6626 66.4462 17.9146 67.1742 17.9146C67.7342 17.9146 68.2009 17.7839 68.5742 17.5226C68.9476 17.2612 69.2042 16.8879 69.3442 16.4026H70.7162C70.5109 17.1866 70.1002 17.8166 69.4842 18.2926C68.8682 18.7592 68.0982 18.9926 67.1742 18.9926C66.4462 18.9926 65.7976 18.8292 65.2282 18.5026C64.6682 18.1759 64.2296 17.7139 63.9122 17.1166C63.5949 16.5192 63.4362 15.8192 63.4362 15.0166ZM79.4162 14.7366C79.4162 14.9792 79.4022 15.2359 79.3742 15.5066H73.2422C73.2888 16.2626 73.5455 16.8552 74.0122 17.2846C74.4882 17.7046 75.0622 17.9146 75.7342 17.9146C76.2848 17.9146 76.7422 17.7886 77.1062 17.5366C77.4795 17.2752 77.7408 16.9299 77.8902 16.5006H79.2622C79.0568 17.2379 78.6462 17.8399 78.0302 18.3066C77.4142 18.7639 76.6488 18.9926 75.7342 18.9926C75.0062 18.9926 74.3528 18.8292 73.7742 18.5026C73.2048 18.1759 72.7568 17.7139 72.4302 17.1166C72.1035 16.5099 71.9402 15.8099 71.9402 15.0166C71.9402 14.2232 72.0988 13.5279 72.4162 12.9306C72.7335 12.3332 73.1768 11.8759 73.7462 11.5586C74.3248 11.2319 74.9875 11.0686 75.7342 11.0686C76.4622 11.0686 77.1062 11.2272 77.6662 11.5446C78.2262 11.8619 78.6555 12.3006 78.9542 12.8606C79.2622 13.4112 79.4162 14.0366 79.4162 14.7366ZM78.1002 14.4706C78.1002 13.9852 77.9928 13.5699 77.7782 13.2246C77.5635 12.8699 77.2695 12.6039 76.8962 12.4266C76.5322 12.2399 76.1262 12.1466 75.6782 12.1466C75.0342 12.1466 74.4835 12.3519 74.0262 12.7626C73.5782 13.1732 73.3215 13.7426 73.2562 14.4706H78.1002Z" fill="white"/>
</svg>
