<svg width="31" height="31" viewBox="0 0 31 31" fill="none" xmlns="http://www.w3.org/2000/svg">
<path d="M26.859 4.15417C22.5423 -0.147908 15.5423 -0.147908 11.2548 4.15417C8.23604 7.14376 7.33188 11.4458 8.49855 15.2375L1.64438 22.0917C1.16313 22.5875 0.827712 23.5646 0.929795 24.2646L1.36729 27.4438C1.52771 28.4938 2.50479 29.4854 3.5548 29.6313L6.73396 30.0688C7.43396 30.1708 8.41105 29.85 8.90688 29.3396L10.1027 28.1438C10.3944 27.8667 10.3944 27.4 10.1027 27.1083L7.27355 24.2792C7.07014 24.0733 6.95606 23.7956 6.95606 23.5063C6.95606 23.2169 7.07014 22.9392 7.27355 22.7333C7.69646 22.3104 8.39646 22.3104 8.81938 22.7333L11.6631 25.5771C11.9402 25.8542 12.4069 25.8542 12.684 25.5771L15.7756 22.5C19.5527 23.6813 23.8548 22.7625 26.859 19.7729C31.161 15.4708 31.161 8.45626 26.859 4.15417ZM19.1444 15.5C18.1774 15.5 17.2501 15.1159 16.5664 14.4322C15.8827 13.7484 15.4985 12.8211 15.4985 11.8542C15.4985 10.8872 15.8827 9.95991 16.5664 9.27618C17.2501 8.59245 18.1774 8.20834 19.1444 8.20834C20.1113 8.20834 21.0386 8.59245 21.7224 9.27618C22.4061 9.95991 22.7902 10.8872 22.7902 11.8542C22.7902 12.8211 22.4061 13.7484 21.7224 14.4322C21.0386 15.1159 20.1113 15.5 19.1444 15.5Z" fill="#1E243A"/>
</svg>
