<svg width="31" height="27" viewBox="0 0 31 27" fill="none" xmlns="http://www.w3.org/2000/svg">
<path d="M24.25 0.375L6.75002 0.375C3.5271 0.375 0.916687 2.97083 0.916687 6.16458L0.916687 20.8354C0.916687 24.0292 3.5271 26.625 6.75002 26.625L24.25 26.625C27.4729 26.625 30.0834 24.0292 30.0834 20.8354L30.0834 6.16458C30.0834 2.97083 27.4729 0.375 24.25 0.375ZM10.3959 6.45625C12.2479 6.45625 13.7646 7.97292 13.7646 9.825C13.7646 11.6771 12.2479 13.1938 10.3959 13.1938C8.54377 13.1938 7.0271 11.6771 7.0271 9.825C7.0271 7.97292 8.54377 6.45625 10.3959 6.45625ZM16.0396 20.2958C15.9084 20.4417 15.7042 20.5292 15.5 20.5292L5.29169 20.5292C5.08752 20.5292 4.88335 20.4417 4.7521 20.2958C4.68534 20.2206 4.6342 20.1329 4.60165 20.0378C4.5691 19.9427 4.5558 19.842 4.56252 19.7417C4.68442 18.5523 5.21447 17.4418 6.06256 16.599C6.91066 15.7562 8.02445 15.2332 9.2146 15.1187C9.99554 15.0458 10.7816 15.0458 11.5625 15.1187C14.0125 15.3521 15.9813 17.2917 16.2146 19.7417C16.2438 19.9458 16.1709 20.15 16.0396 20.2958ZM25.7084 20.4271H22.7917C22.1938 20.4271 21.6979 19.9312 21.6979 19.3333C21.6979 18.7354 22.1938 18.2396 22.7917 18.2396H25.7084C26.3063 18.2396 26.8021 18.7354 26.8021 19.3333C26.8021 19.9312 26.3063 20.4271 25.7084 20.4271ZM25.7084 14.5938H19.875C19.2771 14.5938 18.7813 14.0979 18.7813 13.5C18.7813 12.9021 19.2771 12.4063 19.875 12.4063H25.7084C26.3063 12.4063 26.8021 12.9021 26.8021 13.5C26.8021 14.0979 26.3063 14.5938 25.7084 14.5938ZM25.7084 8.76042L18.4167 8.76042C17.8188 8.76042 17.3229 8.26458 17.3229 7.66667C17.3229 7.06875 17.8188 6.57292 18.4167 6.57292L25.7084 6.57292C26.3063 6.57292 26.8021 7.06875 26.8021 7.66667C26.8021 8.26458 26.3063 8.76042 25.7084 8.76042Z" fill="#1E243A"/>
</svg>
